<?xml version="1.0" encoding="utf-8"?>
<!-- Generator: Adobe Illustrator 17.0.0, SVG Export Plug-In . SVG Version: 6.00 Build 0)  -->
<!DOCTYPE svg PUBLIC "-//W3C//DTD SVG 1.1//EN" "http://www.w3.org/Graphics/SVG/1.1/DTD/svg11.dtd" [
	<!ENTITY ns_flows "http://ns.adobe.com/Flows/1.0/">
	<!ENTITY ns_extend "http://ns.adobe.com/Extensibility/1.0/">
	<!ENTITY ns_ai "http://ns.adobe.com/AdobeIllustrator/10.0/">
	<!ENTITY ns_graphs "http://ns.adobe.com/Graphs/1.0/">
]>
<svg version="1.1" id="Layer_1" xmlns:x="&ns_extend;" xmlns:i="&ns_ai;" xmlns:graph="&ns_graphs;"
	 xmlns="http://www.w3.org/2000/svg" xmlns:xlink="http://www.w3.org/1999/xlink" xmlns:a="http://ns.adobe.com/AdobeSVGViewerExtensions/3.0/"
	 x="0px" y="0px" width="511.48px" height="167.311px" viewBox="0 0 511.48 167.311" enable-background="new 0 0 511.48 167.311"
	 xml:space="preserve">
<g display="none">
	<path display="inline" d="M511.48,144.699c0,12.486-10.121,22.612-22.605,22.612H22.61C10.125,167.311,0,157.186,0,144.699V22.61
		C0,10.125,10.125,0,22.61,0h466.264c12.484,0,22.605,10.125,22.605,22.61V144.699z"/>
	<g id="PLAY_1_" display="inline">
		<defs>
			<path id="SVGID_1_" d="M110.844,73.646L87.781,60.331c0,0-42.016-24.261-44.486-25.687s-4.931-0.563-4.931,2.418
				c0,4.965,0,51.8,0,51.8s0,50.615,0,52.851c0,2.234,1.759,3.197,3.905,1.959c2.145-1.24,45.512-26.279,45.512-26.279
				l23.062-13.314c0,0,19.568-11.297,22.169-12.798c2.601-1.503,2.351-3.563,0.156-4.745
				C130.974,85.353,110.844,73.646,110.844,73.646z"/>
		</defs>
		<clipPath id="SVGID_2_">
			<use xlink:href="#SVGID_1_"  overflow="visible"/>
		</clipPath>
		<linearGradient id="SVGID_3_" gradientUnits="userSpaceOnUse" x1="66.9316" y1="32.211" x2="66.9316" y2="145.5137">
			<stop  offset="0" style="stop-color:#257CB0"/>
			<stop  offset="0.2863" style="stop-color:#4A93B5"/>
			<stop  offset="0.767" style="stop-color:#78BCBB"/>
			<stop  offset="1" style="stop-color:#89CFBD"/>
			<a:midPointStop  offset="0" style="stop-color:#257CB0"/>
			<a:midPointStop  offset="0.457" style="stop-color:#257CB0"/>
			<a:midPointStop  offset="1" style="stop-color:#89CFBD"/>
		</linearGradient>
		<polygon clip-path="url(#SVGID_2_)" fill="url(#SVGID_3_)" points="38.365,32.211 38.365,88.862 38.365,145.514 95.498,88.863 		
			"/>
		<linearGradient id="SVGID_4_" gradientUnits="userSpaceOnUse" x1="38.3648" y1="60.3311" x2="110.8443" y2="60.3311">
			<stop  offset="0" style="stop-color:#52C1AD"/>
			<stop  offset="1" style="stop-color:#DEE89A"/>
			<a:midPointStop  offset="0" style="stop-color:#52C1AD"/>
			<a:midPointStop  offset="0.5" style="stop-color:#52C1AD"/>
			<a:midPointStop  offset="1" style="stop-color:#DEE89A"/>
		</linearGradient>
		<polygon clip-path="url(#SVGID_2_)" fill="url(#SVGID_4_)" points="110.844,73.646 87.781,60.331 38.365,31.799 38.365,32.211 
			95.498,88.863 		"/>
		<linearGradient id="SVGID_5_" gradientUnits="userSpaceOnUse" x1="74.604" y1="88.8633" x2="74.604" y2="145.9258">
			<stop  offset="0" style="stop-color:#EC413D"/>
			<stop  offset="0.1668" style="stop-color:#DA4452"/>
			<stop  offset="0.5748" style="stop-color:#B0487A"/>
			<stop  offset="0.8619" style="stop-color:#954A92"/>
			<stop  offset="1" style="stop-color:#8A4A9D"/>
			<a:midPointStop  offset="0" style="stop-color:#EC413D"/>
			<a:midPointStop  offset="0.457" style="stop-color:#EC413D"/>
			<a:midPointStop  offset="1" style="stop-color:#8A4A9D"/>
		</linearGradient>
		<polygon clip-path="url(#SVGID_2_)" fill="url(#SVGID_5_)" points="38.365,145.514 38.365,145.926 87.781,117.393 
			110.843,104.078 95.498,88.863 		"/>
		<linearGradient id="SVGID_6_" gradientUnits="userSpaceOnUse" x1="116.3493" y1="73.6465" x2="116.3493" y2="104.0781">
			<stop  offset="0" style="stop-color:#F58879"/>
			<stop  offset="0.1194" style="stop-color:#F69079"/>
			<stop  offset="0.7128" style="stop-color:#FCB877"/>
			<stop  offset="1" style="stop-color:#FEC874"/>
			<a:midPointStop  offset="0" style="stop-color:#F58879"/>
			<a:midPointStop  offset="0.457" style="stop-color:#F58879"/>
			<a:midPointStop  offset="1" style="stop-color:#FEC874"/>
		</linearGradient>
		<polygon clip-path="url(#SVGID_2_)" fill="url(#SVGID_6_)" points="110.844,73.646 95.498,88.863 110.843,104.078 137.2,88.862 		
			"/>
	</g>
	<g display="inline">
		<path fill="#F9F9F9" d="M398.058,111.011c-2.145,0-4.104-0.396-5.877-1.187c-1.773-0.792-3.263-2.01-4.466-3.652h-0.36
			c0.24,1.924,0.36,3.748,0.36,5.471v13.559h-4.988V77.459h4.058l0.69,4.51h0.24c1.284-1.805,2.778-3.107,4.481-3.908
			c1.703-0.802,3.658-1.203,5.861-1.203c4.37,0,7.743,1.494,10.117,4.48c2.375,2.986,3.564,7.176,3.564,12.566
			c0,5.412-1.208,9.615-3.621,12.614C405.701,109.514,402.349,111.011,398.058,111.011z M397.336,81.097
			c-3.367,0-5.802,0.933-7.305,2.796c-1.503,1.864-2.275,4.831-2.316,8.9v1.111c0,4.631,0.772,7.943,2.316,9.938
			c1.544,1.994,4.02,2.99,7.425,2.99c2.848,0,5.078-1.151,6.692-3.456c1.612-2.304,2.419-5.481,2.419-9.532
			c0-4.108-0.807-7.261-2.419-9.455C402.535,82.193,400.263,81.097,397.336,81.097z"/>
		<path fill="#F9F9F9" d="M423.293,110.409h-4.99v-46.78h4.99V110.409z"/>
		<path fill="#F9F9F9" d="M451.986,110.409l-0.993-4.69h-0.24c-1.644,2.066-3.282,3.465-4.916,4.194
			c-1.633,0.733-3.673,1.098-6.117,1.098c-3.267,0-5.827-0.842-7.682-2.525c-1.855-1.684-2.781-4.077-2.781-7.185
			c0-6.653,5.322-10.141,15.964-10.463l5.594-0.181v-2.044c0-2.586-0.557-4.496-1.67-5.727c-1.111-1.234-2.893-1.85-5.336-1.85
			c-2.747,0-5.854,0.842-9.32,2.525l-1.534-3.818c1.625-0.882,3.402-1.573,5.338-2.074c1.934-0.501,3.872-0.752,5.817-0.752
			c3.928,0,6.839,0.871,8.734,2.615c1.893,1.744,2.84,4.54,2.84,8.389v22.487H451.986z M440.712,106.893
			c3.105,0,5.545-0.852,7.32-2.555c1.772-1.703,2.661-4.089,2.661-7.157v-2.976l-4.993,0.209c-3.968,0.143-6.827,0.757-8.583,1.852
			c-1.753,1.092-2.63,2.791-2.63,5.096c0,1.803,0.545,3.177,1.639,4.117C437.219,106.422,438.746,106.893,440.712,106.893z"/>
		<path fill="#F9F9F9" d="M458.581,77.459h5.35l7.216,18.791c1.583,4.29,2.566,7.386,2.948,9.291h0.24
			c0.261-1.024,0.808-2.771,1.638-5.249c0.832-2.476,3.554-10.085,8.162-22.833h5.354l-14.162,37.521
			c-1.402,3.708-3.041,6.339-4.917,7.895c-1.873,1.552-4.174,2.327-6.897,2.327c-1.524,0-3.027-0.17-4.512-0.51v-3.998
			c1.102,0.24,2.336,0.361,3.699,0.361c3.428,0,5.871-1.924,7.336-5.773l1.833-4.69L458.581,77.459z"/>
	</g>
	<g display="inline">
		<path fill="#F9F9F9" d="M305.609,80.521c1.584,1.311,4.892,4.065,4.892,9.306c0,5.097-2.895,7.514-5.79,9.785
			c-0.896,0.895-1.93,1.863-1.93,3.381c0,1.513,1.033,2.341,1.794,2.962l2.482,1.926c3.032,2.551,5.786,4.896,5.786,9.653
			c0,6.478-6.272,13.023-18.124,13.023c-9.995,0-14.817-4.754-14.817-9.857c0-2.48,1.235-5.993,5.307-8.408
			c4.27-2.619,10.064-2.96,13.163-3.172c-0.968-1.239-2.068-2.549-2.068-4.682c0-1.17,0.346-1.86,0.69-2.691
			c-0.761,0.07-1.518,0.139-2.208,0.139c-7.303,0-11.439-5.445-11.439-10.818c0-3.171,1.449-6.688,4.409-9.235
			c3.93-3.239,8.616-3.792,12.341-3.792h14.194l-4.411,2.481H305.609z M300.714,111.123c-0.551-0.072-0.897-0.072-1.583-0.072
			c-0.62,0-4.347,0.141-7.238,1.108c-1.516,0.547-5.928,2.201-5.928,7.097c0,4.891,4.758,8.411,12.133,8.411
			c6.612,0,10.131-3.177,10.131-7.446C308.229,116.699,305.954,114.846,300.714,111.123z M302.714,98.026
			c1.583-1.587,1.719-3.79,1.719-5.032c0-4.961-2.962-12.68-8.681-12.68c-1.794,0-3.722,0.895-4.825,2.275
			c-1.17,1.447-1.518,3.306-1.518,5.1c0,4.617,2.689,12.268,8.618,12.268C299.75,99.957,301.607,99.13,302.714,98.026z"/>
		<path fill="#F9F9F9" d="M262.22,110.02c-10.939,0-16.788-8.533-16.788-16.241c0-9.015,7.361-16.718,17.824-16.718
			c10.11,0,16.441,7.91,16.441,16.238C279.698,101.415,273.439,110.02,262.22,110.02z M270.82,104.447
			c1.654-2.204,2.067-4.955,2.067-7.641c0-6.057-2.89-17.615-11.423-17.615c-2.27,0-4.54,0.896-6.191,2.344
			c-2.684,2.405-3.168,5.434-3.168,8.396c0,6.807,3.372,18.02,11.7,18.02C266.488,107.951,269.241,106.646,270.82,104.447z"/>
		<path fill="#F9F9F9" d="M224.925,110.02c-10.941,0-16.79-8.533-16.79-16.241c0-9.015,7.364-16.718,17.824-16.718
			c10.113,0,16.443,7.91,16.443,16.238C242.402,101.415,236.142,110.02,224.925,110.02z M233.527,104.447
			c1.651-2.204,2.065-4.955,2.065-7.641c0-6.057-2.892-17.615-11.425-17.615c-2.269,0-4.541,0.896-6.191,2.344
			c-2.684,2.405-3.165,5.434-3.165,8.396c0,6.807,3.37,18.02,11.699,18.02C229.194,107.951,231.945,106.646,233.527,104.447z"/>
		<path fill="#F9F9F9" d="M202.878,108.941l-9.893,2.283c-4.014,0.624-7.61,1.173-11.413,1.173
			c-19.096,0-26.357-14.044-26.357-25.044c0-13.419,10.306-25.868,27.949-25.868c3.737,0,7.331,0.552,10.582,1.452
			c5.189,1.453,7.609,3.25,9.132,4.289l-5.744,5.465l-2.42,0.551l1.729-2.768c-2.351-2.281-6.643-6.5-14.804-6.5
			c-10.931,0-19.165,8.305-19.165,20.41c0,13.002,9.41,25.247,24.488,25.247c4.432,0,6.71-0.898,8.787-1.73V96.766l-10.444,0.553
			l5.532-2.978h14.667l-1.797,1.729c-0.488,0.417-0.555,0.557-0.693,1.105c-0.072,0.624-0.137,2.632-0.137,3.323V108.941z"/>
		<path fill="#F9F9F9" d="M327.474,106.949c-2.284-0.208-2.762-0.621-2.762-3.322v-0.762V64.473
			c0.014-0.149,0.023-0.302,0.037-0.446c0.279-2.42,0.97-2.835,3.117-4.082h-9.897l-5.19,2.491h5.289v0.031l-0.004-0.025v40.424
			v2.285c0,1.381-0.273,1.591-1.866,3.664h12.246l2.56-1.518C329.83,107.154,328.652,107.087,327.474,106.949z"/>
		<path fill="#F9F9F9" d="M355.624,107.585c-0.753,0.413-1.509,0.896-2.262,1.237c-2.271,1.03-4.606,1.306-6.671,1.306
			c-2.193,0-5.631-0.142-9.138-2.681c-4.874-3.438-7.004-9.346-7.004-14.497c0-10.647,8.656-15.868,15.733-15.868
			c2.474,0,5.018,0.617,7.08,1.925c3.432,2.263,4.325,5.217,4.803,6.798l-16.141,6.529l-5.291,0.412
			c1.715,8.725,7.623,13.805,14.152,13.805c3.503,0,6.046-1.234,8.381-2.4L355.624,107.585z M349.168,87.109
			c1.303-0.479,1.99-0.893,1.99-1.854c0-2.746-3.09-5.908-6.803-5.908c-2.751,0-7.9,2.131-7.9,9.549
			c0,1.168,0.138,2.404,0.209,3.645L349.168,87.109z"/>
		<g>
			<path fill="#F9F9F9" d="M362.255,77.552v4.533h-0.551v-4.533h-1.5v-0.47h3.55v0.47H362.255z"/>
			<path fill="#F9F9F9" d="M368.435,82.085V77.51h-0.025l-1.397,4.575h-0.431l-1.408-4.575h-0.017v4.575h-0.5v-5.003h0.857
				l1.274,4.044h0.018l1.255-4.044h0.869v5.003H368.435z"/>
		</g>
	</g>
	<g display="inline">
		<path fill="#F9F9FA" d="M168.954,48.015h-3.438c0-0.473-0.326-1.812-0.978-4.018h-4.963c-0.673,2.17-1.01,3.509-1.01,4.018h-3.233
			c0-0.279,0.836-2.571,2.508-6.875c1.672-4.304,2.508-6.675,2.508-7.111h4.061c0,0.408,0.757,2.744,2.272,7.009
			C168.197,45.302,168.954,47.628,168.954,48.015z M163.991,41.945c-1.225-3.695-1.837-5.693-1.837-5.994h-0.172
			c0,0.279-0.634,2.277-1.901,5.994H163.991z"/>
		<path fill="#F9F9FA" d="M182.806,48.015h-2.653c0-0.294-0.985-1.844-2.954-4.651c-2.063-2.958-3.237-4.98-3.523-6.069h-0.172
			c0.179,1.568,0.269,2.986,0.269,4.254c0,1.768,0.05,3.925,0.15,6.467h-2.643c0.107-2.22,0.161-4.658,0.161-7.316
			c0-2.614-0.054-4.838-0.161-6.671h3.19c0,0.38,0.884,1.895,2.653,4.544c1.883,2.814,2.965,4.723,3.244,5.726h0.161
			c-0.172-1.597-0.258-3.029-0.258-4.297c0-1.94-0.05-3.932-0.15-5.973h2.686c-0.101,1.776-0.15,4-0.15,6.671
			C182.655,43.392,182.705,45.83,182.806,48.015z"/>
		<path fill="#F9F9FA" d="M198.375,40.538c0,2.034-0.652,3.81-1.955,5.328c-1.304,1.519-3.13,2.277-5.479,2.277
			c-1.06,0-2.521-0.043-4.383-0.129c0.093-2.163,0.14-4.602,0.14-7.316c0-2.606-0.047-4.83-0.14-6.671h1.88
			c0.308,0,0.766-0.011,1.375-0.032c0.608-0.021,1.006-0.032,1.192-0.032c2.585,0,4.459,0.645,5.624,1.934
			C197.793,37.187,198.375,38.733,198.375,40.538z M195.443,41c0-1.375-0.401-2.533-1.203-3.476
			c-0.802-0.941-2.027-1.412-3.674-1.412c-0.308,0-0.73,0.032-1.268,0.097c0.071,1.433,0.107,2.929,0.107,4.49
			c0,1.712,0.036,3.409,0.107,5.092c0.465,0.093,0.931,0.14,1.396,0.14c1.539,0,2.68-0.478,3.421-1.435
			C195.072,43.54,195.443,42.375,195.443,41z"/>
		<path fill="#F9F9FA" d="M212.732,48.015h-3.18c-0.831-2.535-1.468-4.1-1.912-4.694c-0.444-0.595-1.16-0.892-2.148-0.892
			c-0.416,0-0.813,0.004-1.192,0.011c0,1.841,0.032,3.699,0.097,5.575h-2.986c0.093-2.163,0.14-4.602,0.14-7.316
			c0-2.606-0.047-4.83-0.14-6.671h1.858c0.215,0,0.664-0.011,1.348-0.032c0.684-0.021,1.316-0.032,1.896-0.032
			c3.287,0,4.931,1.124,4.931,3.373c0,1.783-0.939,3.025-2.815,3.728v0.161c0.723,0.2,1.357,0.765,1.901,1.691
			C211.074,43.845,211.808,45.544,212.732,48.015z M208.704,38.132c0-1.425-0.917-2.138-2.75-2.138c-0.673,0-1.268,0.05-1.783,0.15
			c0.079,1.11,0.118,2.557,0.118,4.34c0.394,0.015,0.727,0.021,0.999,0.021C207.565,40.506,208.704,39.715,208.704,38.132z"/>
		<path fill="#F9F9FA" d="M228.13,40.764c0,2.198-0.673,4.021-2.019,5.468c-1.347,1.446-3.012,2.17-4.995,2.17
			c-1.891,0-3.474-0.664-4.748-1.993c-1.275-1.328-1.912-3.017-1.912-5.064c0-2.198,0.673-4.022,2.02-5.468
			c1.346-1.446,3.011-2.17,4.995-2.17c1.891,0,3.473,0.662,4.748,1.987C227.493,37.019,228.13,38.708,228.13,40.764z
			 M225.165,41.075c0-1.497-0.383-2.711-1.149-3.642c-0.767-0.931-1.712-1.396-2.836-1.396c-1.046,0-1.934,0.469-2.664,1.407
			c-0.73,0.938-1.096,2.123-1.096,3.556c0,1.489,0.385,2.701,1.155,3.636c0.77,0.935,1.713,1.402,2.831,1.402
			c1.045,0,1.934-0.471,2.664-1.413C224.8,43.684,225.165,42.5,225.165,41.075z"/>
		<path fill="#F9F9FA" d="M234.204,48.015h-3.04c0.093-2.22,0.14-4.658,0.14-7.316c0-2.614-0.047-4.838-0.14-6.671h3.04
			c-0.093,1.805-0.14,4.028-0.14,6.671C234.064,43.399,234.111,45.838,234.204,48.015z"/>
		<path fill="#F9F9FA" d="M249.774,40.538c0,2.034-0.652,3.81-1.955,5.328c-1.304,1.519-3.13,2.277-5.479,2.277
			c-1.06,0-2.521-0.043-4.383-0.129c0.093-2.163,0.14-4.602,0.14-7.316c0-2.606-0.047-4.83-0.14-6.671h1.88
			c0.308,0,0.766-0.011,1.375-0.032c0.608-0.021,1.006-0.032,1.192-0.032c2.585,0,4.46,0.645,5.624,1.934
			C249.192,37.187,249.774,38.733,249.774,40.538z M246.842,41c0-1.375-0.401-2.533-1.203-3.476
			c-0.802-0.941-2.027-1.412-3.674-1.412c-0.308,0-0.731,0.032-1.268,0.097c0.071,1.433,0.107,2.929,0.107,4.49
			c0,1.712,0.036,3.409,0.107,5.092c0.465,0.093,0.931,0.14,1.396,0.14c1.54,0,2.68-0.478,3.421-1.435
			C246.471,43.54,246.842,42.375,246.842,41z"/>
		<path fill="#F9F9FA" d="M270.43,48.015h-3.438c0-0.473-0.326-1.812-0.979-4.018h-4.963c-0.673,2.17-1.01,3.509-1.01,4.018h-3.232
			c0-0.279,0.836-2.571,2.508-6.875c1.672-4.304,2.508-6.675,2.508-7.111h4.061c0,0.408,0.758,2.744,2.272,7.009
			C269.672,45.302,270.43,47.628,270.43,48.015z M265.467,41.945c-1.225-3.695-1.838-5.693-1.838-5.994h-0.172
			c0,0.279-0.633,2.277-1.9,5.994H265.467z"/>
		<path fill="#F9F9FA" d="M282.96,37.691c0,1.712-0.636,2.976-1.907,3.792c-1.271,0.816-2.83,1.225-4.678,1.225
			c-0.337,0-0.576-0.007-0.72-0.021c0,1.347,0.039,3.122,0.118,5.328h-3.018c0.093-2.069,0.14-4.508,0.14-7.316
			c0-2.578-0.047-4.802-0.14-6.671h1.869c0.265,0,0.773-0.011,1.525-0.032c0.752-0.021,1.403-0.032,1.955-0.032
			c1.36,0,2.51,0.308,3.448,0.924C282.492,35.504,282.96,36.438,282.96,37.691z M280.189,38.282c0-1.532-1.017-2.299-3.051-2.299
			c-0.509,0-1.046,0.054-1.611,0.161c0.079,1.354,0.118,2.886,0.118,4.598c0.179,0.015,0.387,0.021,0.623,0.021
			C278.882,40.764,280.189,39.937,280.189,38.282z"/>
		<path fill="#F9F9FA" d="M295.844,37.691c0,1.712-0.636,2.976-1.906,3.792c-1.271,0.816-2.831,1.225-4.679,1.225
			c-0.337,0-0.576-0.007-0.72-0.021c0,1.347,0.039,3.122,0.118,5.328h-3.018c0.093-2.069,0.14-4.508,0.14-7.316
			c0-2.578-0.047-4.802-0.14-6.671h1.869c0.265,0,0.773-0.011,1.525-0.032c0.752-0.021,1.403-0.032,1.955-0.032
			c1.36,0,2.51,0.308,3.448,0.924C295.375,35.504,295.844,36.438,295.844,37.691z M293.073,38.282c0-1.532-1.017-2.299-3.051-2.299
			c-0.509,0-1.046,0.054-1.611,0.161c0.079,1.354,0.118,2.886,0.118,4.598c0.179,0.015,0.387,0.021,0.623,0.021
			C291.766,40.764,293.073,39.937,293.073,38.282z"/>
		<path fill="#F9F9FA" d="M316.909,40.764c0,2.198-0.673,4.021-2.02,5.468s-3.012,2.17-4.995,2.17c-1.891,0-3.474-0.664-4.748-1.993
			c-1.274-1.328-1.912-3.017-1.912-5.064c0-2.198,0.673-4.022,2.02-5.468c1.347-1.446,3.012-2.17,4.995-2.17
			c1.891,0,3.474,0.662,4.748,1.987C316.271,37.019,316.909,38.708,316.909,40.764z M313.944,41.075c0-1.497-0.383-2.711-1.15-3.642
			c-0.767-0.931-1.712-1.396-2.836-1.396c-1.046,0-1.934,0.469-2.664,1.407c-0.73,0.938-1.096,2.123-1.096,3.556
			c0,1.489,0.385,2.701,1.155,3.636c0.77,0.935,1.713,1.402,2.83,1.402c1.046,0,1.934-0.471,2.664-1.413
			C313.579,43.684,313.944,42.5,313.944,41.075z"/>
		<path fill="#F9F9FA" d="M331.469,48.015h-2.653c0-0.294-0.984-1.844-2.954-4.651c-2.063-2.958-3.237-4.98-3.523-6.069h-0.172
			c0.179,1.568,0.269,2.986,0.269,4.254c0,1.768,0.05,3.925,0.15,6.467h-2.643c0.107-2.22,0.161-4.658,0.161-7.316
			c0-2.614-0.054-4.838-0.161-6.671h3.19c0,0.38,0.885,1.895,2.653,4.544c1.884,2.814,2.965,4.723,3.244,5.726h0.161
			c-0.172-1.597-0.258-3.029-0.258-4.297c0-1.94-0.05-3.932-0.15-5.973h2.686c-0.101,1.776-0.15,4-0.15,6.671
			C331.319,43.392,331.369,45.83,331.469,48.015z"/>
	</g>
</g>
<g>
	<path d="M511.48,144.899c0,12.578-10.12,22.777-22.605,22.777H22.61C10.125,167.676,0,157.476,0,144.899V21.919
		C0,9.343,10.125-0.855,22.61-0.855h466.265c12.485,0,22.605,10.198,22.605,22.774V144.899z"/>
	<g>
		<path fill="#FFFFFF" d="M133.38,110.543c-2.708,6.046-4.004,8.743-7.489,14.086c-4.866,7.461-11.721,16.75-20.215,16.828
			c-7.55,0.07-9.488-4.949-19.732-4.892c-10.244,0.056-12.384,4.98-19.934,4.911c-8.495-0.079-14.991-8.467-19.856-15.926
			C32.55,104.691,31.129,80.213,39.517,67.2c5.963-9.249,15.366-14.662,24.21-14.662c9.004,0,14.664,4.974,22.109,4.974
			c7.221,0,11.623-4.982,22.032-4.982c7.868,0,16.205,4.315,22.147,11.779C110.551,75.053,113.712,103.058,133.38,110.543z"/>
		<g>
			<path fill="#FFFFFF" d="M99.971,44.199c3.78-4.89,6.654-11.796,5.612-18.854c-6.177,0.428-13.406,4.388-17.626,9.549
				c-3.83,4.687-6.991,11.637-5.76,18.391C88.942,53.495,95.92,49.438,99.971,44.199z"/>
		</g>
	</g>
	<g>
		<g>
			<path fill="#FFFFFF" d="M174.82,66.885l-19.485,57.775h8.923l5.817-17.74h18.867l5.982,17.74h9.17l-19.57-57.775H174.82z
				 M179.443,76.384c0.658,2.579,1.368,5.257,2.281,8.151l5.251,15.318H172.03l5.178-15.419
				C177.997,81.935,178.745,79.235,179.443,76.384z"/>
			<path fill="#FFFFFF" d="M229.308,81.862c-5.911,0-10.645,2.298-13.796,6.667l-0.346-5.747h-7.938l0.048,0.735
				c0.234,3.58,0.331,7.52,0.331,13.178v44.532h8.678v-20.782c2.692,3.245,6.991,5.134,11.862,5.134
				c5.072,0,9.745-2.001,13.149-5.631c3.802-4.047,5.807-9.864,5.807-16.813c0-6.141-1.741-11.451-5.042-15.352
				C238.83,83.964,234.302,81.862,229.308,81.862z M227.147,89.099c7.736,0,11.198,7.218,11.198,14.371
				c0,9.225-4.418,14.957-11.527,14.957c-4.854,0-9.053-3.328-10.223-8.112c-0.201-0.741-0.308-1.722-0.308-2.83v-7.03
				c0-0.636,0.142-1.409,0.276-2.157c0.043-0.239,0.09-0.478,0.125-0.71C217.98,92.588,222.276,89.099,227.147,89.099z"/>
			<path fill="#FFFFFF" d="M273.995,81.862c-5.909,0-10.643,2.298-13.797,6.667l-0.346-5.747h-7.935l0.044,0.735
				c0.236,3.584,0.335,7.52,0.335,13.178v44.532h8.678v-20.782c2.692,3.245,6.988,5.134,11.859,5.134
				c5.072,0,9.746-2.001,13.156-5.631c3.795-4.047,5.803-9.864,5.803-16.813c0-6.141-1.744-11.451-5.045-15.352
				C283.516,83.964,278.989,81.862,273.995,81.862z M271.835,89.099c7.732,0,11.195,7.218,11.195,14.371
				c0,9.225-4.42,14.957-11.526,14.957c-4.852,0-9.055-3.328-10.223-8.112c-0.201-0.741-0.306-1.722-0.306-2.83v-7.03
				c0-0.64,0.14-1.416,0.277-2.165c0.043-0.235,0.086-0.471,0.125-0.702C262.666,92.588,266.964,89.099,271.835,89.099z"/>
			<path fill="#FFFFFF" d="M329.978,91.365c-8.099-3.159-10.693-5.644-10.693-10.234c0-3.865,3.048-7.763,9.863-7.763
				c5.622,0,9.218,1.969,10.187,2.576l0.735,0.457l2.449-7.295l-0.484-0.285c-1.453-0.858-5.597-2.856-12.637-2.856
				c-11.067,0-18.796,6.581-18.796,16c0,7.597,4.84,12.907,15.232,16.712c7.365,2.773,10.106,5.613,10.106,10.482
				c0,5.512-4.229,8.931-11.03,8.931c-4.43,0-8.989-1.301-12.508-3.572l-0.753-0.486l-2.329,7.463l0.428,0.285
				c3.276,2.204,9.442,3.798,14.666,3.798c14.915,0,20.203-9.161,20.203-17.005C344.616,100.486,340.376,95.499,329.978,91.365z"/>
			<path fill="#FFFFFF" d="M360.237,72.829l-8.511,2.692v7.262h-6.231v6.986h6.231v21.4c0,5.173,0.982,8.799,3.004,11.091
				c1.94,2.141,4.921,3.32,8.397,3.32c3.28,0,5.611-0.653,6.708-1.043l0.486-0.174l-0.415-6.999l-0.833,0.257
				c-1.097,0.339-2.223,0.47-4.036,0.47c-3.362,0-4.799-2.143-4.799-7.174V89.768h10.468v-6.986h-10.468V72.829z"/>
			<path fill="#FFFFFF" d="M392.211,81.862c-12.142,0-20.621,9.129-20.621,22.193c0,12.674,8.205,21.524,19.956,21.524h0.08
				c9.934,0,20.621-6.971,20.621-22.277c0-6.223-1.911-11.569-5.53-15.461C403.078,83.932,398.059,81.862,392.211,81.862z
				 M391.96,88.763c7.807,0,11.361,7.666,11.361,14.792c0,8.763-4.85,15.123-11.525,15.123h-0.084
				c-6.581,0-11.359-6.254-11.359-14.87C380.352,96.32,383.943,88.763,391.96,88.763z"/>
			<path fill="#FFFFFF" d="M438.827,82.268l-0.521-0.133c-0.764-0.192-1.388-0.273-2.158-0.273c-4.54,0-8.613,2.693-10.88,7.037
				l-0.255-6.117h-7.788l0.05,0.735c0.232,3.46,0.327,7.345,0.327,12.587l-0.08,28.556h8.678v-22.278
				c0-1.213,0.082-2.36,0.239-3.389c0.978-5.35,4.563-8.809,9.13-8.809c0.888,0,1.587,0.073,2.328,0.147l0.929,0.096V82.268z"/>
			<path fill="#FFFFFF" d="M458.338,81.779c-11.552,0-19.621,9.298-19.621,22.611c0,12.82,8.027,21.106,20.452,21.106
				c6.533,0,11.079-1.445,13.739-2.655l0.523-0.237l-1.668-6.514l-0.724,0.294c-2.365,0.969-5.509,1.959-10.872,1.959
				c-3.77,0-12.466-1.253-12.998-12.674l28.01,0.085l0.113-0.558c0.176-0.888,0.26-2.085,0.26-3.648
				C475.552,92.428,471.045,81.779,458.338,81.779z M457.759,88.43c2.642,0,4.787,0.824,6.371,2.448
				c2.497,2.56,2.934,6.328,2.989,8.138h-19.792C448.133,93.967,451.268,88.43,457.759,88.43z"/>
		</g>
		<g>
			<path fill="#FFFFFF" d="M155.335,27.418c2.418-0.324,5.237-0.567,8.324-0.567c5.595,0,9.578,1.136,12.219,3.368
				c2.73,2.231,4.297,5.435,4.297,9.858c0,4.462-1.567,8.113-4.341,10.629c-2.865,2.556-7.52,3.936-13.382,3.936
				c-2.82,0-5.102-0.081-7.116-0.325V27.418z M159.273,51.639c0.984,0.162,2.417,0.162,3.939,0.162
				c8.324,0.04,12.843-4.219,12.843-11.603c0.045-6.532-3.983-10.549-12.217-10.549c-2.013,0-3.536,0.164-4.565,0.365V51.639z"/>
			<path fill="#FFFFFF" d="M194.131,54.844c-5.819,0-10.382-3.894-10.382-10.101c0-6.572,4.788-10.427,10.739-10.427
				c6.222,0,10.427,4.097,10.427,10.061c0,7.302-5.593,10.467-10.738,10.467H194.131z M194.265,52.165
				c3.759,0,6.579-3.205,6.579-7.668c0-3.326-1.835-7.505-6.489-7.505c-4.611,0-6.624,3.895-6.624,7.627
				c0,4.3,2.685,7.545,6.489,7.545H194.265z"/>
			<path fill="#FFFFFF" d="M211.146,34.761l2.909,9.941c0.581,2.19,1.164,4.259,1.566,6.288h0.134
				c0.492-1.989,1.208-4.098,1.924-6.247l3.536-9.981h3.313l3.357,9.818c0.804,2.314,1.431,4.423,1.923,6.411h0.134
				c0.358-1.989,0.941-4.057,1.656-6.37l3.087-9.859h3.895l-6.981,19.636h-3.581l-3.311-9.371c-0.76-2.232-1.388-4.179-1.926-6.491
				h-0.088c-0.537,2.353-1.208,4.422-1.97,6.532l-3.49,9.33h-3.58l-6.535-19.636H211.146z"/>
			<path fill="#FFFFFF" d="M242.521,40.077c0-2.07-0.045-3.692-0.18-5.316h3.492l0.223,3.207h0.09
				c1.074-1.827,3.58-3.652,7.16-3.652c2.999,0,7.653,1.622,7.653,8.357v11.724h-3.936V43.078c0-3.164-1.3-5.84-5.014-5.84
				c-2.551,0-4.566,1.663-5.28,3.65c-0.179,0.447-0.269,1.095-0.269,1.664v11.846h-3.938V40.077z"/>
			<path fill="#FFFFFF" d="M267.358,25.593h3.939v28.804h-3.939V25.593z"/>
			<path fill="#FFFFFF" d="M286.648,54.844c-5.817,0-10.382-3.894-10.382-10.101c0-6.572,4.786-10.427,10.74-10.427
				c6.219,0,10.426,4.097,10.426,10.061c0,7.302-5.594,10.467-10.74,10.467H286.648z M286.78,52.165c3.76,0,6.58-3.205,6.58-7.668
				c0-3.326-1.835-7.505-6.488-7.505c-4.611,0-6.625,3.895-6.625,7.627c0,4.3,2.685,7.545,6.49,7.545H286.78z"/>
			<path fill="#FFFFFF" d="M317.663,49.692c0,1.703,0.09,3.366,0.314,4.705h-3.537l-0.358-2.474h-0.132
				c-1.164,1.541-3.538,2.92-6.623,2.92c-4.385,0-6.623-2.799-6.623-5.64c0-4.746,4.653-7.343,13.021-7.302v-0.405
				c0-1.622-0.49-4.584-4.921-4.543c-2.06,0-4.162,0.526-5.683,1.459l-0.896-2.393c1.79-1.014,4.43-1.704,7.161-1.704
				c6.667,0,8.278,4.097,8.278,8.033V49.692z M313.816,44.377c-4.297-0.081-9.175,0.609-9.175,4.422c0,2.353,1.7,3.408,3.67,3.408
				c2.864,0,4.699-1.623,5.324-3.287c0.137-0.364,0.181-0.771,0.181-1.136V44.377z"/>
			<path fill="#FFFFFF" d="M342.68,25.593v23.732c0,1.745,0.048,3.732,0.18,5.072h-3.535l-0.178-3.407h-0.09
				c-1.208,2.19-3.805,3.854-7.34,3.854c-5.237,0-9.31-4.016-9.31-9.981c-0.045-6.572,4.477-10.548,9.711-10.548
				c3.359,0,5.596,1.421,6.536,2.962h0.088V25.593H342.68z M338.743,42.754c0-0.487-0.044-1.055-0.18-1.541
				c-0.58-2.232-2.729-4.098-5.682-4.098c-4.073,0-6.49,3.245-6.49,7.546c0,4.016,2.194,7.3,6.4,7.3
				c2.642,0,5.058-1.622,5.772-4.259c0.136-0.486,0.18-0.974,0.18-1.541V42.754z"/>
			<path fill="#FFFFFF" d="M367.519,54.844c-5.817,0-10.382-3.894-10.382-10.101c0-6.572,4.791-10.427,10.74-10.427
				c6.223,0,10.428,4.097,10.428,10.061c0,7.302-5.595,10.467-10.738,10.467H367.519z M367.655,52.165
				c3.759,0,6.577-3.205,6.577-7.668c0-3.326-1.832-7.505-6.487-7.505c-4.611,0-6.623,3.895-6.623,7.627
				c0,4.3,2.685,7.545,6.487,7.545H367.655z"/>
			<path fill="#FFFFFF" d="M383.276,40.077c0-2.07-0.046-3.692-0.18-5.316h3.491l0.226,3.207h0.088
				c1.074-1.827,3.579-3.652,7.16-3.652c2.999,0,7.654,1.622,7.654,8.357v11.724h-3.939V43.078c0-3.164-1.296-5.84-5.013-5.84
				c-2.549,0-4.565,1.663-5.281,3.65c-0.178,0.447-0.268,1.095-0.268,1.664v11.846h-3.937V40.077z"/>
			<path fill="#FFFFFF" d="M422.346,30.057v4.704h5.637v2.718h-5.637v10.59c0,2.433,0.762,3.813,2.955,3.813
				c1.072,0,1.7-0.081,2.282-0.243l0.178,2.718c-0.76,0.243-1.968,0.487-3.491,0.487c-1.834,0-3.313-0.568-4.253-1.501
				c-1.074-1.095-1.52-2.841-1.52-5.154V37.479h-3.357v-2.718h3.357v-3.61L422.346,30.057z"/>
			<path fill="#FFFFFF" d="M432.417,25.593h3.937v12.252h0.092c0.624-1.015,1.608-1.947,2.82-2.515
				c1.162-0.648,2.547-1.014,4.027-1.014c2.907,0,7.562,1.622,7.562,8.398v11.684h-3.937V43.119c0-3.206-1.298-5.842-5.013-5.842
				c-2.55,0-4.519,1.623-5.281,3.57c-0.224,0.487-0.27,1.014-0.27,1.704v11.846h-3.937V25.593z"/>
			<path fill="#FFFFFF" d="M459.492,45.188c0.092,4.828,3.449,6.816,7.385,6.816c2.819,0,4.565-0.448,5.999-0.975l0.716,2.515
				c-1.39,0.568-3.807,1.259-7.251,1.259c-6.625,0-10.652-4.018-10.652-9.899c0-5.964,3.895-10.63,10.202-10.63
				c7.073,0,8.906,5.639,8.906,9.25c0,0.73-0.042,1.298-0.132,1.703L459.492,45.188z M470.997,42.632
				c0.042-2.232-1.03-5.802-5.417-5.802c-4.029,0-5.729,3.327-6.041,5.802H470.997z"/>
		</g>
	</g>
</g>
</svg>
