<?xml version="1.0" encoding="utf-8"?>
<!-- Generator: Adobe Illustrator 17.0.0, SVG Export Plug-In . SVG Version: 6.00 Build 0)  -->
<!DOCTYPE svg PUBLIC "-//W3C//DTD SVG 1.1//EN" "http://www.w3.org/Graphics/SVG/1.1/DTD/svg11.dtd" [
	<!ENTITY ns_flows "http://ns.adobe.com/Flows/1.0/">
	<!ENTITY ns_extend "http://ns.adobe.com/Extensibility/1.0/">
	<!ENTITY ns_ai "http://ns.adobe.com/AdobeIllustrator/10.0/">
	<!ENTITY ns_graphs "http://ns.adobe.com/Graphs/1.0/">
]>
<svg version="1.1" id="Layer_1" xmlns:x="&ns_extend;" xmlns:i="&ns_ai;" xmlns:graph="&ns_graphs;"
	 xmlns="http://www.w3.org/2000/svg" xmlns:xlink="http://www.w3.org/1999/xlink" xmlns:a="http://ns.adobe.com/AdobeSVGViewerExtensions/3.0/"
	 x="0px" y="0px" width="80.813px" height="24.303px" viewBox="0 0 80.813 24.303" enable-background="new 0 0 80.813 24.303"
	 xml:space="preserve">
<g id="XMLID_45_">
	<path id="XMLID_237_" fill="#FFFFFF" d="M15.984,15.91c0,0,0.414,0.025,0.42,0.42"/>
	<g id="XMLID_168_">
		<path id="XMLID_233_" fill="#010101" d="M33.73,18.807c-0.335,0-0.596-0.261-0.596-0.596c0-0.13,0.037-0.242,0.112-0.354
			L40.176,7.46h-6.505c-0.335,0-0.596-0.261-0.596-0.596c0-0.335,0.261-0.596,0.596-0.596h7.604c0.335,0,0.596,0.261,0.596,0.596
			c0,0.13-0.037,0.242-0.112,0.354l-6.875,10.396h6.67c0.335,0,0.596,0.261,0.596,0.596c0,0.335-0.261,0.596-0.596,0.596H33.73z"/>
		<path id="XMLID_229_" fill="#010101" d="M44.499,18.807c-0.354,0-0.633-0.279-0.633-0.633V6.901c0-0.354,0.279-0.633,0.633-0.633
			h5.981c0.317,0,0.578,0.261,0.578,0.578c0,0.317-0.261,0.578-0.578,0.578h-5.347v4.49h4.099c0.317,0,0.578,0.261,0.578,0.578
			c0,0.317-0.261,0.578-0.578,0.578h-4.099v4.583h5.552c0.317,0,0.578,0.261,0.578,0.578c0,0.317-0.261,0.578-0.578,0.578H44.499z"
			/>
		<path id="XMLID_224_" fill="#010101" d="M62.273,6.734v11.589c0,0.354-0.279,0.633-0.633,0.633c-0.224,0-0.391-0.093-0.522-0.261
			L54.56,8.802v9.539c0,0.335-0.279,0.615-0.615,0.615c-0.335,0-0.615-0.279-0.615-0.615V6.734c0-0.335,0.279-0.615,0.615-0.615
			c0.224,0,0.41,0.13,0.503,0.261l6.595,9.912V6.734c0-0.335,0.279-0.615,0.615-0.615C61.994,6.119,62.273,6.398,62.273,6.734z"/>
		<path id="XMLID_221_" fill="#010101" d="M66.335,18.322c0,0.335-0.279,0.633-0.633,0.633c-0.354,0-0.633-0.298-0.633-0.633V6.752
			c0-0.335,0.279-0.633,0.633-0.633c0.354,0,0.633,0.298,0.633,0.633V18.322z"/>
		<path id="XMLID_170_" fill="#010101" d="M74.253,16.422l-3.894-7.248v9.167c0,0.335-0.279,0.615-0.615,0.615
			c-0.335,0-0.615-0.279-0.615-0.615V6.734c0-0.335,0.279-0.615,0.615-0.615c0.279,0,0.466,0.168,0.559,0.354l4.509,8.44l4.527-8.44
			c0.075-0.13,0.224-0.354,0.559-0.354c0.335,0,0.615,0.279,0.615,0.615v11.607c0,0.335-0.279,0.615-0.615,0.615
			c-0.335,0-0.615-0.279-0.615-0.615V9.174l-3.913,7.248c-0.13,0.242-0.335,0.354-0.559,0.354
			C74.626,16.776,74.384,16.683,74.253,16.422z"/>
	</g>
	<g id="XMLID_135_">
		<path id="XMLID_164_" fill="#5E5E5E" d="M33.856,21.902c-0.283,0-0.391,0.14-0.391,0.294c0,0.448,1.02,0.256,1.02,0.907
			c0,0.337-0.232,0.523-0.648,0.523c-0.308,0-0.537-0.157-0.629-0.332c-0.011-0.022-0.013-0.032-0.013-0.049
			c0-0.049,0.038-0.086,0.086-0.086c0.032,0,0.059,0.016,0.076,0.043c0.086,0.14,0.243,0.256,0.48,0.256
			c0.297,0,0.464-0.119,0.464-0.356c0-0.505-1.02-0.267-1.02-0.907c0-0.248,0.181-0.461,0.575-0.461
			c0.256,0,0.464,0.108,0.577,0.278c0.011,0.016,0.016,0.032,0.016,0.051c0,0.049-0.038,0.086-0.086,0.086
			c-0.024,0-0.049-0.008-0.07-0.035C34.212,22.015,34.082,21.902,33.856,21.902z"/>
		<path id="XMLID_162_" fill="#5E5E5E" d="M36.859,21.945c-0.049,0-0.086-0.038-0.086-0.086s0.038-0.086,0.086-0.086h1.147
			c0.049,0,0.086,0.038,0.086,0.086s-0.038,0.086-0.086,0.086h-0.48v1.573c0,0.051-0.041,0.092-0.092,0.092
			c-0.051,0-0.092-0.04-0.092-0.092v-1.573H36.859z"/>
		<path id="XMLID_159_" fill="#5E5E5E" d="M40.526,23.051l-0.197,0.494c-0.013,0.035-0.043,0.065-0.089,0.065
			c-0.051,0-0.092-0.043-0.092-0.092c0-0.011,0.003-0.03,0.008-0.04l0.658-1.665c0.014-0.032,0.038-0.062,0.086-0.062
			c0.046,0,0.076,0.03,0.089,0.062l0.658,1.665c0.005,0.013,0.008,0.032,0.008,0.04c0,0.049-0.038,0.092-0.094,0.092
			c-0.046,0-0.076-0.027-0.089-0.062l-0.194-0.496H40.526z M40.901,22.058l-0.318,0.826h0.639L40.901,22.058z"/>
		<path id="XMLID_156_" fill="#5E5E5E" d="M44.314,23.518c0,0.051-0.04,0.092-0.092,0.092c-0.051,0-0.092-0.04-0.092-0.092v-1.654
			c0-0.051,0.041-0.092,0.092-0.092h0.537c0.299,0,0.515,0.227,0.515,0.515c0,0.278-0.192,0.502-0.483,0.515l0.494,0.658
			c0.014,0.016,0.019,0.038,0.019,0.057c0,0.051-0.041,0.092-0.092,0.092c-0.027,0-0.057-0.011-0.078-0.043l-0.548-0.764h-0.273
			V23.518z M44.314,22.635h0.451c0.189,0,0.324-0.154,0.324-0.348c0-0.2-0.138-0.348-0.332-0.348h-0.443V22.635z"/>
		<path id="XMLID_154_" fill="#5E5E5E" d="M47.685,21.945c-0.049,0-0.086-0.038-0.086-0.086s0.038-0.086,0.086-0.086h1.147
			c0.049,0,0.086,0.038,0.086,0.086s-0.038,0.086-0.086,0.086h-0.48v1.573c0,0.051-0.041,0.092-0.092,0.092
			c-0.051,0-0.092-0.04-0.092-0.092v-1.573H47.685z"/>
		<path id="XMLID_152_" fill="#5E5E5E" d="M51.57,23.518c0,0.049-0.04,0.092-0.092,0.092c-0.051,0-0.092-0.043-0.092-0.092v-1.675
			c0-0.049,0.04-0.092,0.092-0.092c0.051,0,0.092,0.043,0.092,0.092V23.518z"/>
		<path id="XMLID_150_" fill="#5E5E5E" d="M55.456,21.84v1.678c0,0.051-0.04,0.092-0.092,0.092c-0.032,0-0.057-0.013-0.076-0.038
			l-0.95-1.433v1.381c0,0.049-0.04,0.089-0.089,0.089c-0.049,0-0.089-0.04-0.089-0.089V21.84c0-0.049,0.041-0.089,0.089-0.089
			c0.032,0,0.059,0.019,0.073,0.038l0.955,1.435V21.84c0-0.049,0.04-0.089,0.089-0.089C55.415,21.75,55.456,21.791,55.456,21.84z"/>
		<path id="XMLID_148_" fill="#5E5E5E" d="M59.293,23.242v-0.391h-0.451c-0.046,0-0.084-0.038-0.084-0.084
			c0-0.046,0.038-0.084,0.084-0.084h0.545c0.043,0,0.084,0.038,0.084,0.084v0.472c0,0.032-0.011,0.059-0.035,0.089
			c-0.129,0.151-0.318,0.297-0.645,0.297c-0.523,0-0.842-0.281-0.842-0.944c0-0.639,0.318-0.947,0.842-0.947
			c0.256,0,0.48,0.111,0.607,0.286c0.013,0.019,0.019,0.038,0.019,0.057c0,0.049-0.038,0.086-0.086,0.086
			c-0.024,0-0.049-0.008-0.07-0.035c-0.092-0.127-0.264-0.227-0.469-0.227c-0.416,0-0.653,0.251-0.653,0.78
			c0,0.561,0.237,0.777,0.653,0.777C59.042,23.458,59.204,23.353,59.293,23.242z"/>
		<path id="XMLID_145_" fill="#5E5E5E" d="M65.033,23.518c0,0.051-0.04,0.092-0.092,0.092c-0.051,0-0.092-0.04-0.092-0.092v-1.654
			c0-0.051,0.04-0.092,0.092-0.092h0.537c0.289,0,0.515,0.167,0.515,0.526c0,0.353-0.221,0.529-0.515,0.529h-0.445V23.518z
			 M65.033,22.66h0.418c0.219,0,0.356-0.127,0.356-0.362c0-0.237-0.14-0.359-0.356-0.359h-0.418V22.66z"/>
		<path id="XMLID_142_" fill="#5E5E5E" d="M68.406,22.681c0-0.639,0.318-0.947,0.842-0.947c0.523,0,0.842,0.308,0.842,0.947
			c0,0.634-0.318,0.944-0.842,0.944C68.724,23.626,68.406,23.315,68.406,22.681z M68.594,22.681c0,0.526,0.24,0.777,0.653,0.777
			c0.413,0,0.653-0.251,0.653-0.777c0-0.529-0.24-0.78-0.653-0.78C68.835,21.902,68.594,22.152,68.594,22.681z"/>
		<path id="XMLID_140_" fill="#5E5E5E" d="M72.793,23.518c0,0.049-0.04,0.092-0.092,0.092c-0.051,0-0.092-0.043-0.092-0.092v-1.675
			c0-0.049,0.041-0.092,0.092-0.092c0.051,0,0.092,0.043,0.092,0.092V23.518z"/>
		<path id="XMLID_138_" fill="#5E5E5E" d="M76.679,21.84v1.678c0,0.051-0.04,0.092-0.092,0.092c-0.032,0-0.057-0.013-0.076-0.038
			l-0.95-1.433v1.381c0,0.049-0.04,0.089-0.089,0.089c-0.049,0-0.089-0.04-0.089-0.089V21.84c0-0.049,0.041-0.089,0.089-0.089
			c0.032,0,0.059,0.019,0.073,0.038l0.955,1.435V21.84c0-0.049,0.04-0.089,0.089-0.089C76.638,21.75,76.679,21.791,76.679,21.84z"/>
		<path id="XMLID_136_" fill="#5E5E5E" d="M79.204,21.945c-0.049,0-0.086-0.038-0.086-0.086s0.038-0.086,0.086-0.086h1.147
			c0.049,0,0.086,0.038,0.086,0.086s-0.038,0.086-0.086,0.086h-0.48v1.573c0,0.051-0.041,0.092-0.092,0.092s-0.092-0.04-0.092-0.092
			v-1.573H79.204z"/>
	</g>
	<g id="XMLID_241_">
		<g id="XMLID_245_">
			<defs>
				<path id="XMLID_246_" d="M25.728,24.002h1.809c0,0,0.603,0.08,0.603-0.536V0.541c0,0,0-1.227-0.716-0.239l-11.645,16.14
					c0,0-0.73,0.922,0.301,0.907h8.442c0,0,0.592,0.02,0.592,0.663l0.01,5.386C25.125,23.397,25.06,24.002,25.728,24.002z"/>
			</defs>
			<clipPath id="XMLID_2_">
				<use xlink:href="#XMLID_246_"  overflow="visible"/>
			</clipPath>
			<g id="_x31_v3y3f.tif_2_" clip-path="url(#XMLID_2_)">
				
					<image overflow="visible" width="1000" height="560" id="Layer_1_1_" xlink:href="214A4A2B.png"  transform="matrix(2.449000e-012 0.026 -0.0545 1.167000e-012 29.2238 -0.5478)">
				</image>
			</g>
		</g>
		<g id="XMLID_242_">
			<defs>
				<path id="XMLID_243_" d="M2.754-0.079H0.945c0,0-0.603-0.08-0.603,0.536v22.925c0,0,0,1.227,0.716,0.239l11.645-16.14
					c0,0,0.73-0.922-0.301-0.907H3.96c0,0-0.592-0.02-0.592-0.663l-0.01-5.386C3.357,0.525,3.422-0.079,2.754-0.079z"/>
			</defs>
			<clipPath id="XMLID_3_">
				<use xlink:href="#XMLID_243_"  overflow="visible"/>
			</clipPath>
			<g id="_x31_v3y3f.tif_1_" clip-path="url(#XMLID_3_)">
				
					<image overflow="visible" width="1000" height="560" id="Layer_1_3_" xlink:href="214A4A2E.png"  transform="matrix(-4.783000e-012 -0.026 0.0545 -6.065000e-012 -0.7415 24.4702)">
				</image>
			</g>
		</g>
	</g>
</g>
</svg>
